<svg width="12" height="17" viewBox="0 0 12 17" fill="none" xmlns="http://www.w3.org/2000/svg">
<path fill-rule="evenodd" clip-rule="evenodd" d="M10.375 0.5H1.625C0.934644 0.5 0.375 1.05964 0.375 1.75V15.5C0.375113 15.7271 0.498456 15.9364 0.697156 16.0464C0.895856 16.1565 1.13863 16.1501 1.33125 16.0297L6 13.1117L10.6695 16.0297C10.8621 16.1497 11.1046 16.1558 11.303 16.0458C11.5015 15.9358 11.6247 15.7269 11.625 15.5V1.75C11.625 1.05964 11.0654 0.5 10.375 0.5ZM10.375 14.3727L6.33047 11.8453C6.1278 11.7186 5.87064 11.7186 5.66797 11.8453L1.625 14.3727V1.75H10.375V14.3727Z" fill="white"/>
</svg>
