<svg width="18" height="15" viewBox="0 0 18 15" fill="none" xmlns="http://www.w3.org/2000/svg">
<path fill-rule="evenodd" clip-rule="evenodd" d="M16.9422 5.56719L13.1922 9.31719C12.948 9.5614 12.552 9.5614 12.3078 9.31719C12.0636 9.07297 12.0636 8.67703 12.3078 8.43281L14.9914 5.75H11.8906C8.75493 5.74913 6.01596 7.87012 5.23203 10.9062C5.14574 11.2406 4.8047 11.4418 4.47031 11.3555C4.13592 11.2692 3.9348 10.9281 4.02109 10.5938C4.94611 7.00454 8.18413 4.49719 11.8906 4.5H14.993L12.3078 1.81719C12.0636 1.57297 12.0636 1.17703 12.3078 0.932812C12.552 0.688599 12.948 0.688599 13.1922 0.932812L16.9422 4.68281C17.0595 4.80004 17.1255 4.95912 17.1255 5.125C17.1255 5.29088 17.0595 5.44996 16.9422 5.56719ZM14 13.25H2.125V3.875C2.125 3.52982 1.84518 3.25 1.5 3.25C1.15482 3.25 0.875 3.52982 0.875 3.875V13.25C0.875 13.9404 1.43464 14.5 2.125 14.5H14C14.3452 14.5 14.625 14.2202 14.625 13.875C14.625 13.5298 14.3452 13.25 14 13.25Z" fill="white"/>
</svg>
